<svg width="1280" height="320" viewBox="0 0 1280 320" fill="none" xmlns="http://www.w3.org/2000/svg" role="img" aria-label="Forskai Studio — evidence, broadcast only after review">
  <rect width="1280" height="320" fill="#F6F6F2"/>
  <!-- faint workspace grid -->
  <g stroke="#E1E2DA" stroke-width="1">
    <line x1="0" y1="80" x2="1280" y2="80"/><line x1="0" y1="160" x2="1280" y2="160"/><line x1="0" y1="240" x2="1280" y2="240"/>
  </g>
  <!-- mark, large -->
  <g transform="translate(120,80) scale(2.5)">
    <path d="M42.9 37.1 A12 12 0 1 1 42.9 26.9" stroke="#5B4FA6" stroke-width="3" stroke-linecap="round"/>
    <path d="M42.9 16.4 A19 19 0 0 1 42.9 47.6" stroke="#1F726B" stroke-width="3" stroke-linecap="round"/>
    <path d="M50.4 13.6 A26 26 0 0 1 50.4 50.4" stroke="#1F726B" stroke-width="3" stroke-linecap="round" opacity="0.55"/>
    <circle cx="32" cy="32" r="5" fill="#1A1B2E"/>
  </g>
  <text x="370" y="158" font-family="Inter, system-ui, sans-serif" font-size="56" letter-spacing="-1.5">
    <tspan fill="#1A1B2E" font-weight="600">forskai</tspan><tspan fill="#A6A8B6" font-weight="400">&#160;&#183;&#160;</tspan><tspan fill="#75788C" font-weight="400">Studio</tspan>
  </text>
  <text x="372" y="200" font-family="Inter, system-ui, sans-serif" font-size="22" fill="#4C4E66" font-weight="400">Test before you trust. Sources become reviewed, audience-specific content.</text>
  <text x="372" y="232" font-family="'IBM Plex Mono', monospace" font-size="15" fill="#1F726B" letter-spacing="0.5">create</text>
  <text x="468" y="232" font-family="'IBM Plex Mono', monospace" font-size="15" fill="#75788C">·</text>
  <text x="486" y="232" font-family="'IBM Plex Mono', monospace" font-size="15" fill="#5B4FA6" letter-spacing="0.5">verify</text>
  <text x="566" y="232" font-family="'IBM Plex Mono', monospace" font-size="15" fill="#75788C">·</text>
  <text x="584" y="232" font-family="'IBM Plex Mono', monospace" font-size="15" fill="#2E7D55" letter-spacing="0.5">export when supported</text>
</svg>
